<svg xmlns="http://www.w3.org/2000/svg" xmlns:xlink="http://www.w3.org/1999/xlink" id="Layer_1" x="0" y="0" enable-background="new 0 0 160 80" version="1.1" viewBox="0 0 160 80" xml:space="preserve"><style type="text/css">.st0{stroke:#fff;stroke-linecap:round;stroke-linejoin:round}.st0,.st1,.st2{fill:none;stroke-width:3;stroke-miterlimit:10}.st1{stroke:#000;stroke-linecap:round;stroke-linejoin:round}.st2{stroke:#fff}</style><g><line x1="9.5" x2="9.5" y1="3" y2="22" class="st0"/><polyline points="2 10 9.5 2 17 10" class="st0"/></g><g><line x1="49.5" x2="49.5" y1="21" y2="2" class="st0"/><polyline points="42 14 49.5 22 57 14" class="st0"/></g><g><line x1="117" x2="98" y1="20.5" y2="20.5" class="st1"/><polyline points="110 28 118 20.5 110 13" class="st1"/></g><g><line x1="123" x2="142" y1="20.5" y2="20.5" class="st1"/><polyline points="130 28 122 20.5 130 13" class="st1"/></g><circle cx="19.5" cy="60" r="15.5" class="st2"/><polyline points="26.5 64.5 19.5 61.5 19.5 50.5" class="st0"/><rect width="31" height="31" x="44.5" y="44.5" class="st0"/><polyline points="44.6 63.1 50 55.5 53.1 65.3 57.2 57 60.3 60.5 64.3 53.9 68.5 59.4 75.6 50.4" class="st0"/></svg>